<?xml version="1.0" encoding="UTF-8" standalone="no"?>
<svg width="647px" height="313px" viewBox="0 0 647 313" version="1.1" xmlns="http://www.w3.org/2000/svg" xmlns:xlink="http://www.w3.org/1999/xlink" xmlns:sketch="http://www.bohemiancoding.com/sketch/ns">
    <!-- Generator: Sketch 3.3 (11970) - http://www.bohemiancoding.com/sketch -->
    <title>logo</title>
    <desc>Created with Sketch.</desc>
    <defs></defs>
    <g id="Page-1" stroke="none" stroke-width="1" fill="none" fill-rule="evenodd" sketch:type="MSPage">
        <g id="logo" sketch:type="MSLayerGroup" transform="translate(-2.000000, -1.000000)">
            <g id="g10" transform="translate(325.000000, 157.500000) scale(1, -1) translate(-325.000000, -157.500000) " sketch:type="MSShapeGroup">
                <g id="g14">
                    <g id="g16-Clipped">
                        <g id="g16" transform="translate(0.750000, 0.750000)">
                            <g id="g22" transform="translate(0.754125, 0.229125)" fill="#EC0972">
                                <path d="M621.25,273.75 C621.1475,275.20375 620.975,276.665 620.7175,278.12875 C616.72875,300.75 595.155,315.85375 572.535,311.86625 C571.305,311.65 570.10375,311.37125 568.92,311.05375 L109.655,230.075 L118.985,177.16 C147.06125,175.3825 171.335,154.665 176.4375,125.73375 C182.42,91.80375 159.7625,59.44125 125.82875,53.46 C91.8975,47.475 59.53875,70.1375 53.55625,104.065 C48.43125,133.12625 64.32125,161.01375 90.3,172.18625 L81.135,224.16375 C26.835,207.41 -7.77,152.45625 2.35375,95.03875 C13.32375,32.83125 72.64875,-8.71125 134.8575,2.25875 C135.8375,2.4325 136.81375,2.61625 137.785,2.8125 L612.5225,86.5225 L612.515,86.56875 C634.99875,90.67 649.98,112.16375 646.0075,134.7025 C645.74875,136.1675 645.4125,137.59875 645.01,138.99875 L621.25,273.75 L621.25,273.75 Z" id="path24"></path>
                            </g>
                            <g id="g26" transform="translate(190.015375, 97.652375)" fill="#FFFFFF">
                                <path d="M35,56.25 C24.8325,59.095 20.52625,61.15375 19.53875,66.98 C18.58625,72.4325 22.2325,76.5 29.9075,77.80625 C34.74875,78.6425 40.79375,78.27125 47.44875,76.6225 L45.9125,92.285 C39.03625,93.01 32.80625,92.95625 26.86,91.93375 C7.90875,88.70125 -1.41125,76.91125 1.3125,60.94 C3.57125,47.79375 11.235,44 23.46875,40.255 C35.6,36.47 41.1375,35.36375 42.37125,28.07125 C43.45125,21.88375 39.655,17.15375 31.625,15.7775 C25.43125,14.71 18.68375,15.46375 11.17,17.60625 L12.32625,1.88125 C20.5275,0.8725 27.96,0.73125 34.885,1.93625 C54.19375,5.24375 63.5075,17.795 60.75,33.9 C58.24625,48.6375 49.7475,52.01125 35,56.25" id="path28"></path>
                            </g>
                            <g id="g30" transform="translate(352.927125, 99.964000)" fill="#FFFFFF">
                                <path d="M40,51.25 L18.91,92.88625 L0.4225,89.62625 L34.28125,27.4875 L33.90375,24.4775 C33.26625,18.52375 30.46625,15.48875 25.025,14.55375 C24.01375,14.3925 22.3825,14.35625 20.035,14.585 L21.2125,0.39125 C25.23625,-0.07125 28.7625,0.15875 32.2125,0.745 C47.07,3.30375 50.27375,12.1375 52.48125,28.30875 L62.165,100.51375 L43.4775,97.2175 L40,51.25 L40,51.25 Z" id="path32"></path>
                            </g>
                            <g id="g34" transform="translate(420.501375, 134.909625)" fill="#FFFFFF">
                                <path d="M0,51.25 L24.3325,55.54 L5.40125,17.66 L8.40625,0.62875 L53.64,8.605 L51.07375,23.16625 L25.84625,18.7175 L45.05625,57.29 L42.145,73.80125 L2.39125,66.79125 L0,51.25 L0,51.25 Z" id="path36"></path>
                            </g>
                            <g id="g38" transform="translate(470.183875, 144.710875)" fill="#FFFFFF">
                                <path d="M18.75,68.75 L0.0625,65.455 L11.55,0.3025 L30.23875,3.59875 L18.75,68.75 L18.75,68.75 Z" id="path40"></path>
                            </g>
                            <g id="g42" transform="translate(492.399625, 149.199000)" fill="#FFFFFF">
                                <path d="M18.75,92.5 L0.08375,89.2075 L15.73125,0.46875 L34.3975,3.76125 L18.75,92.5 L18.75,92.5 Z" id="path44"></path>
                            </g>
                            <g id="g46" transform="translate(519.126250, 153.911125)" fill="#FFFFFF">
                                <path d="M18.75,92.5 L0.08375,89.2075 L15.73125,0.47 L34.3975,3.7625 L18.75,92.5 L18.75,92.5 Z" id="path48"></path>
                            </g>
                            <g id="g50" transform="translate(245.407500, 109.599625)" fill="#FFFFFF">
                                <path d="M51.25,17.5 C49.22875,16.655 47.5625,16.06375 46.1425,15.8125 C39.68875,14.71 38.315,18.2925 36.97375,26.09125 L32.27375,52.74125 L44.65625,54.925 L42.33375,68.38625 L29.9025,66.19375 L26.6125,84.85125 L8.93875,75.8425 L11.2225,62.9 L0.83375,61.0675 L3.205,47.61625 L13.59375,49.4475 L18.47375,21.77625 C21.1475,6.18 24.97,-2.095 42.46,0.8975 C45.95125,1.5025 49.70375,2.60125 53.6175,4.075 L51.25,17.5 L51.25,17.5 Z" id="path52"></path>
                            </g>
                            <g id="g54" transform="translate(467.456875, 216.579625)" fill="#FFFFFF">
                                <path d="M18.75,11.25 C19.65625,6.11875 16.2275,1.2275 11.0975,0.3225 C5.96625,-0.58125 1.07625,2.8425 0.17125,7.97375 C-0.73375,13.1025 2.69125,17.995 7.8225,18.9 C12.9525,19.805 17.845,16.38 18.75,11.25" id="path56"></path>
                            </g>
                            <g id="g58" transform="translate(301.320250, 114.474250)" fill="#FFFFFF">
                                <path d="M27.5,17.5 C22.31625,16.59375 18.6925,18.35 17.7975,23.675 C16.6325,30.355 21.0825,32.765 30.0025,34.3 C31.36875,34.52 33.33625,34.8675 35.595,34.9975 L36.065,32.33375 C37.70125,25.79625 35.045,18.78625 27.5,17.5 L27.5,17.5 Z M59.57875,9.18375 L58.00125,18.11625 C57.73375,19.47625 57.48625,20.83875 57.25375,22.21125 L56.11,28.85375 L52.38375,49.9825 C48.7225,66.97375 41.66625,73.45 22.00625,70.08625 C15.19125,68.93375 8.01625,66.16 0.60875,61.84375 L2.8775,48.98 C6.99625,52.0125 14.65625,55.14 19.78,56.29875 C27.76,58.10125 32.04,54.98125 33.20875,48.16625 L33.53125,46.30375 L27.89,45.34625 C8.0875,41.96125 -1.17375,32.08 1.235,17.965 C3.28,6.07 12.16625,-0.42375 23.18375,1.4575 C30.86875,2.7875 35.55125,5.91875 39.3925,13.2275 L40.6925,5.85375 L59.57875,9.18375 L59.57875,9.18375 Z" id="path60"></path>
                            </g>
                            <g id="g62" transform="translate(556.111625, 159.400750)" fill="#FFFFFF">
                                <path d="M27.5,17.5 C22.32,16.595 18.695,18.35125 17.8,23.67625 C16.635,30.35625 21.0875,32.76625 30.005,34.30125 C31.3725,34.52 33.3375,34.8675 35.6,34.99875 L36.07,32.33375 C37.70375,25.795 35.05,18.78625 27.5,17.5 L27.5,17.5 Z M59.58125,9.1825 L58.00625,18.1175 C57.735,19.47625 57.48875,20.84 57.25625,22.2125 L56.11125,28.85375 L52.3875,49.98375 C48.72375,66.97375 41.67125,73.45125 22.0075,70.08625 C15.19375,68.935 8.02,66.16 0.61,61.84375 L2.8775,48.98125 C6.99625,52.01375 14.65875,55.14 19.78375,56.29875 C27.76125,58.1025 32.04125,54.98375 33.21125,48.1675 L33.53375,46.30375 L27.89375,45.34625 C8.08875,41.9625 -1.1725,32.08 1.235,17.965 C3.28375,6.07 12.16875,-0.42375 23.19,1.4575 C30.87125,2.78875 35.55375,5.91875 39.395,13.2275 L40.69625,5.85375 L59.58125,9.1825 L59.58125,9.1825 Z" id="path64"></path>
                            </g>
                        </g>
                    </g>
                </g>
            </g>
        </g>
    </g>
</svg>